<svg width="69" height="93" viewBox="0 0 69 93" fill="none" xmlns="http://www.w3.org/2000/svg">
<path d="M35.5 33.3676C43 32.8676 47.0495 32.7429 54 37.3676C58.0249 40.0456 52 46 50 51C48.1131 55.7172 47.7377 59.2349 49.5 64C51.5476 69.5365 61.5 72.5 60.5 74.3675C57.8589 79.2998 55.2587 79.9575 50 81.8675C42.9657 84.4225 37.3479 85.7877 30 84.3675C25.443 83.4868 23.4898 82.7389 19.5 80.3675C14.8574 77.6082 12.3845 75.2133 10 70.3675C7.32753 64.9363 7.10608 60.758 8.5 54.8675C10.3353 47.1118 15.0555 43.1939 21.4998 38.5045C26.6426 34.7622 29.1538 33.7906 35.5 33.3676Z" fill="#FFE074"/>
<path d="M55.2757 32.7218C55.2757 32.7218 38.3583 25.6078 23.933 32.7218C12.9238 38.1512 6.17538 45.7152 4.50306 55.3573C3.44849 61.4377 4.04792 66.6861 6.33926 71.7391C7.79475 74.9488 10.5709 78.6947 14.6667 81.8786C18.7225 85.0314 21.5918 86.3383 26.6667 87.6119C32.9576 89.1906 36.9874 88.9796 43.3333 87.6119C53.1686 85.4922 61.6487 82.044 65 74.3145" stroke="#99C08B" stroke-width="8" stroke-linecap="round"/>
<path d="M30.8333 26.5363C30.8333 26.5363 29.6667 20.1688 25.5 13.235M6.5 17.8676C18.1667 8.36758 40.5 15.3676 47.5 4.00001" stroke="#99C08B" stroke-width="8" stroke-linecap="round"/>
<rect width="5.97191" height="26.6124" rx="2.98595" transform="matrix(0.95941 -0.282016 0.312349 0.949967 30.5359 40.6993)" fill="#FAF1E6"/>
<rect width="5.88191" height="20.4693" rx="2.94096" transform="matrix(0.811141 0.584851 -0.62778 0.778391 39.5168 59.1862)" fill="#FAF1E6"/>
</svg>
