<svg width="20" height="20" viewBox="0 0 20 20" fill="none" xmlns="http://www.w3.org/2000/svg">
<path fill-rule="evenodd" clip-rule="evenodd" d="M10.2055 18.3334C9.07629 18.3334 7.97546 18.3209 6.88629 18.2984C5.49296 18.2709 4.52879 17.3675 4.37129 15.9409C4.10879 13.5742 3.65962 7.99588 3.65546 7.94004C3.62712 7.59588 3.88379 7.29421 4.22796 7.26671C4.56712 7.25754 4.87379 7.49588 4.90129 7.83921C4.90546 7.89588 5.35379 13.455 5.61379 15.8034C5.70296 16.6142 6.14046 17.0325 6.91212 17.0484C8.99546 17.0925 11.1213 17.095 13.413 17.0534C14.233 17.0375 14.6763 16.6275 14.768 15.7975C15.0263 13.4692 15.4763 7.89588 15.4813 7.83921C15.5088 7.49588 15.813 7.25588 16.1538 7.26671C16.498 7.29504 16.7546 7.59588 16.7271 7.94004C16.7221 7.99671 16.2705 13.5892 16.0105 15.935C15.8488 17.3909 14.8871 18.2767 13.4355 18.3034C12.3246 18.3225 11.253 18.3334 10.2055 18.3334Z" fill="black"/>
<path fill-rule="evenodd" clip-rule="evenodd" d="M17.2567 5.82446H3.125C2.78 5.82446 2.5 5.54446 2.5 5.19946C2.5 4.85446 2.78 4.57446 3.125 4.57446H17.2567C17.6017 4.57446 17.8817 4.85446 17.8817 5.19946C17.8817 5.54446 17.6017 5.82446 17.2567 5.82446Z" fill="black"/>
<path fill-rule="evenodd" clip-rule="evenodd" d="M14.5335 5.82449C13.5852 5.82449 12.7618 5.14866 12.5752 4.21866L12.3727 3.20533C12.3302 3.05116 12.1543 2.91699 11.9543 2.91699H8.42682C8.22682 2.91699 8.05099 3.05116 8.00016 3.24366L7.80599 4.21866C7.62016 5.14866 6.79599 5.82449 5.84766 5.82449C5.50266 5.82449 5.22266 5.54449 5.22266 5.19949C5.22266 4.85449 5.50266 4.57449 5.84766 4.57449C6.20266 4.57449 6.51099 4.32116 6.58099 3.97283L6.78349 2.95949C6.98932 2.18283 7.66182 1.66699 8.42682 1.66699H11.9543C12.7193 1.66699 13.3918 2.18283 13.5893 2.92199L13.801 3.97283C13.8702 4.32116 14.1785 4.57449 14.5335 4.57449C14.8785 4.57449 15.1585 4.85449 15.1585 5.19949C15.1585 5.54449 14.8785 5.82449 14.5335 5.82449Z" fill="black"/>
</svg>
