<svg width="20" height="20" viewBox="0 0 20 20" fill="none" xmlns="http://www.w3.org/2000/svg">
<path fill-rule="evenodd" clip-rule="evenodd" d="M17.2922 18.2832H11.248C10.903 18.2832 10.623 18.0032 10.623 17.6582C10.623 17.3132 10.903 17.0332 11.248 17.0332H17.2922C17.6372 17.0332 17.9172 17.3132 17.9172 17.6582C17.9172 18.0032 17.6372 18.2832 17.2922 18.2832Z" fill="black"/>
<mask id="mask0_60_4206" style="mask-type:alpha" maskUnits="userSpaceOnUse" x="1" y="2" width="15" height="17">
<path fill-rule="evenodd" clip-rule="evenodd" d="M1.66699 2.50024H15.9841V18.2832H1.66699V2.50024Z" fill="white"/>
</mask>
<g mask="url(#mask0_60_4206)">
<path fill-rule="evenodd" clip-rule="evenodd" d="M10.9256 4.18078L3.07972 13.9933C2.93722 14.1716 2.88472 14.4016 2.93722 14.6224L3.50472 17.0266L6.03722 16.9949C6.27805 16.9924 6.50055 16.8849 6.64805 16.7016C9.32889 13.3474 14.4397 6.95245 14.5847 6.76495C14.7214 6.54328 14.7747 6.22995 14.7031 5.92828C14.6297 5.61911 14.4372 5.35661 14.1597 5.18911C14.1006 5.14828 12.6964 4.05828 12.6531 4.02411C12.1247 3.60078 11.3539 3.67411 10.9256 4.18078ZM3.01139 18.2833C2.72222 18.2833 2.47055 18.0849 2.40305 17.8024L1.72055 14.9099C1.57972 14.3108 1.71972 13.6924 2.10389 13.2124L9.95389 3.39411C9.95722 3.39078 9.95972 3.38661 9.96305 3.38328C10.8239 2.35411 12.3806 2.20245 13.4306 3.04495C13.4722 3.07745 14.8664 4.16078 14.8664 4.16078C15.3731 4.46245 15.7689 5.00161 15.9189 5.63995C16.0681 6.27161 15.9597 6.92328 15.6122 7.47411C15.5864 7.51495 15.5639 7.54995 7.62389 17.4833C7.24139 17.9599 6.66805 18.2374 6.05222 18.2449L3.01972 18.2833H3.01139Z" fill="black"/>
</g>
<path fill-rule="evenodd" clip-rule="evenodd" d="M13.5194 9.73747C13.386 9.73747 13.2527 9.69497 13.1385 9.6083L8.59519 6.1183C8.32185 5.9083 8.27019 5.51664 8.48019 5.24164C8.69102 4.9683 9.08269 4.91747 9.35685 5.12747L13.901 8.61664C14.1744 8.82664 14.226 9.21914 14.0152 9.4933C13.8927 9.6533 13.7069 9.73747 13.5194 9.73747Z" fill="black"/>
</svg>
